<svg width="64" height="64" viewBox="0 0 64 64" fill="none" xmlns="http://www.w3.org/2000/svg" class="w-12 h-12"><rect x="16" y="4" width="32" height="56" rx="4" stroke="black" stroke-width="1.5" fill="none"></rect><line x1="26" y1="9" x2="38" y2="9" stroke="black" stroke-width="1.5" stroke-linecap="round"></line><rect x="20" y="14" width="6" height="6" rx="1.5" fill="black"></rect><rect x="29" y="14" width="6" height="6" rx="1.5" fill="black"></rect><rect x="38" y="14" width="6" height="6" rx="1.5" fill="black"></rect><rect x="20" y="23" width="6" height="6" rx="1.5" fill="black"></rect><rect x="29" y="23" width="6" height="6" rx="1.5" fill="#00D664"></rect><rect x="38" y="23" width="6" height="6" rx="1.5" fill="black"></rect><rect x="20" y="32" width="6" height="6" rx="1.5" fill="black"></rect><rect x="29" y="32" width="6" height="6" rx="1.5" fill="black"></rect><rect x="38" y="32" width="6" height="6" rx="1.5" fill="#00D664"></rect><rect x="20" y="41" width="6" height="6" rx="1.5" fill="#00D664"></rect><rect x="29" y="41" width="6" height="6" rx="1.5" fill="black"></rect><rect x="38" y="41" width="6" height="6" rx="1.5" fill="black"></rect><rect x="28" y="54" width="8" height="3" rx="1.5" fill="black"></rect></svg>