<svg width="64" height="64" viewBox="0 0 64 64" fill="none" xmlns="http://www.w3.org/2000/svg" class="w-12 h-12"><rect x="18" y="30" width="36" height="24" rx="1.5" stroke="black" stroke-width="1.5" fill="none"></rect><path d="M14 54 L18 54 L54 54 L58 54 L56 58 L16 58 Z" stroke="black" stroke-width="1.5" fill="none"></path><rect x="8" y="8" width="16" height="16" fill="#00D664" stroke="#00D664" stroke-width="1"></rect><path d="M8 8 L12 4 L28 4 L24 8 Z" fill="#00D664" opacity="0.7" stroke="#00D664" stroke-width="1"></path><path d="M24 8 L28 4 L28 20 L24 24 Z" fill="#00D664" opacity="0.85" stroke="#00D664" stroke-width="1"></path><text x="16" y="18" font-family="Arial, sans-serif" font-size="8" font-weight="bold" fill="white" text-anchor="middle">AI</text><g transform="translate(28, 36)"><line x1="4" y1="0" x2="4" y2="3" stroke="#00D664" stroke-width="1.5" stroke-linecap="round"></line><line x1="8" y1="0" x2="8" y2="3" stroke="#00D664" stroke-width="1.5" stroke-linecap="round"></line><rect x="2" y="3" width="8" height="6" rx="1" fill="none" stroke="#00D664" stroke-width="1.5"></rect><path d="M6 9 Q6 12 8 14" stroke="#00D664" stroke-width="1.5" stroke-linecap="round" fill="none"></path></g></svg>