<svg width="64" height="64" viewBox="0 0 64 64" fill="none" xmlns="http://www.w3.org/2000/svg" class="w-12 h-12"><rect x="8" y="18" width="12" height="38" rx="2" fill="white" stroke="black" stroke-width="1"></rect><rect x="10" y="22" width="3" height="4" rx="0.5" fill="#00D664" opacity="0.6"></rect><rect x="15" y="22" width="3" height="4" rx="0.5" fill="#00D664" opacity="0.6"></rect><rect x="10" y="28" width="3" height="4" rx="0.5" fill="#00D664" opacity="0.6"></rect><rect x="15" y="28" width="3" height="4" rx="0.5" fill="#00D664" opacity="0.6"></rect><rect x="10" y="34" width="3" height="4" rx="0.5" fill="#00D664" opacity="0.6"></rect><rect x="15" y="34" width="3" height="4" rx="0.5" fill="#00D664" opacity="0.6"></rect><rect x="10" y="40" width="3" height="4" rx="0.5" fill="#00D664" opacity="0.6"></rect><rect x="15" y="40" width="3" height="4" rx="0.5" fill="#00D664" opacity="0.6"></rect><rect x="20" y="10" width="24" height="46" rx="2" fill="white" stroke="black" stroke-width="1"></rect><rect x="24" y="14" width="4" height="5" rx="0.5" fill="#00D664" opacity="0.6"></rect><rect x="30" y="14" width="4" height="5" rx="0.5" fill="#00D664" opacity="0.6"></rect><rect x="36" y="14" width="4" height="5" rx="0.5" fill="#00D664" opacity="0.6"></rect><rect x="24" y="21" width="4" height="5" rx="0.5" fill="#00D664" opacity="0.6"></rect><rect x="30" y="21" width="4" height="5" rx="0.5" fill="#00D664" opacity="0.6"></rect><rect x="36" y="21" width="4" height="5" rx="0.5" fill="#00D664" opacity="0.6"></rect><rect x="24" y="28" width="4" height="5" rx="0.5" fill="#00D664" opacity="0.6"></rect><rect x="30" y="28" width="4" height="5" rx="0.5" fill="#00D664" opacity="0.6"></rect><rect x="36" y="28" width="4" height="5" rx="0.5" fill="#00D664" opacity="0.6"></rect><rect x="24" y="35" width="4" height="5" rx="0.5" fill="#00D664" opacity="0.6"></rect><rect x="30" y="35" width="4" height="5" rx="0.5" fill="#00D664" opacity="0.6"></rect><rect x="36" y="35" width="4" height="5" rx="0.5" fill="#00D664" opacity="0.6"></rect><rect x="29" y="46" width="6" height="10" rx="1" fill="black"></rect><rect x="44" y="18" width="12" height="38" rx="2" fill="white" stroke="black" stroke-width="1"></rect><rect x="46" y="22" width="3" height="4" rx="0.5" fill="#00D664" opacity="0.6"></rect><rect x="51" y="22" width="3" height="4" rx="0.5" fill="#00D664" opacity="0.6"></rect><rect x="46" y="28" width="3" height="4" rx="0.5" fill="#00D664" opacity="0.6"></rect><rect x="51" y="28" width="3" height="4" rx="0.5" fill="#00D664" opacity="0.6"></rect><rect x="46" y="34" width="3" height="4" rx="0.5" fill="#00D664" opacity="0.6"></rect><rect x="51" y="34" width="3" height="4" rx="0.5" fill="#00D664" opacity="0.6"></rect><rect x="46" y="40" width="3" height="4" rx="0.5" fill="#00D664" opacity="0.6"></rect><rect x="51" y="40" width="3" height="4" rx="0.5" fill="#00D664" opacity="0.6"></rect></svg>